# xmcd
# 
# Track frame offsets:
#     183
#     10188
#     21308
#     32183
#     44228
#     56410
#     67503
#     82113
#     98920
#     111190
#     125175
#     138735
#     152573
#     167623
#     180885
#     194580
#     207780
#     223305
# 
# Disc length: 3160
# 
# Revision: 15
# Processed by: cddbd v1.5.2PL0 Copyright (c) Steve Scherf et al.
# Submitted via: fre:ac v1.0.31
# 
DISCID=050c5612
DTITLE=John Lee Hooker - Boogie Man
DYEAR=1992
DGENRE=Jazz
TTITLE0=Dimples
TTITLE1=Good Rockin' Mama
TTITLE2=No Shoes
TTITLE3=Whiskey And Wimmen
TTITLE4=San Francisco Blues
TTITLE5=McKinley Morganfield - Baby, Please Don't Go
TTITLE6=Sugar Mama
TTITLE7=The Journey
TTITLE8=Walkin' The Boogie
TTITLE9=M Merriweather - Worried Life Blues
TTITLE10=Apologize
TTITLE11=Louise
TTITLE12=Ramblin' Myself
TTITLE13=Union Station Blues
TTITLE14=Bluebird
TTITLE15=Down At The Landing
TTITLE16=Hey Baby
TTITLE17=I Don't Want Your Money
EXTD=compilation
EXTT0=
EXTT1=
EXTT2=
EXTT3=
EXTT4=
EXTT5=
EXTT6=
EXTT7=
EXTT8=
EXTT9=
EXTT10=
EXTT11=
EXTT12=
EXTT13=
EXTT14=
EXTT15=
EXTT16=
EXTT17=
PLAYORDER=
